<svg id="Capa_1" enable-background="new 0 0 512 512" height="512" viewBox="0 0 512 512" width="512" xmlns="http://www.w3.org/2000/svg"><g><g><path d="m140.67 19.45c.04-.05.09-.1.13-.14.03-.04.07-.07.1-.11 1.95-2.07 4.1-3.88 6.42-5.43 6.08-4.05 13.27-6.27 20.7-6.27h175.96c7.43 0 14.62 2.22 20.7 6.27 2.36 1.58 4.55 3.43 6.52 5.54.04.04.09.09.13.14l-13.026 49.442-102.304 83.088-107.865-87.24z" fill="#fe646f"/><path d="m256 151.98 103.61-104.69c8.98-9.07 10.71-22.69 5.07-33.52 2.36 1.58 4.55 3.43 6.52 5.54.04.04.09.09.13.14l103.69 111.98c10.39 11.12 10.13 29.07-.57 39.88l-99.66 100.7z" fill="#fd4755"/><path d="m475.02 131.43-103.69-111.98c-.04-.05-.09-.1-.13-.14-1.97-2.11-4.16-3.96-6.52-5.54 4.804 9.224 4.241 20.461-1.573 29.198l81.913 88.462c10.39 11.12 10.13 29.07-.57 39.88l-84.66 85.543 15 15.156 99.66-100.7c10.7-10.809 10.96-28.759.57-39.879z" fill="#fb2b3a"/><path d="m256 392.04-79.37 80.2-115.35-123.5 75.93-76.73z" fill="#fd4755"/><path d="m99.581 310.038-.002-.001-38.299 38.703 115.35 123.5 38.303-38.704z" fill="#fed402"/><path d="m116.106 293.336 118.789 120.029 21.105-21.325-118.79-120.03z" fill="#fb2b3a"/><path d="m450.72 348.74-115.35 123.5-297.82-300.93c-10.7-10.81-10.96-28.76-.57-39.88l103.69-111.98c.04-.05.09-.1.13-.14.03-.04.07-.07.1-.11 1.95-2.07 4.1-3.88 6.42-5.43-5.64 10.83-3.91 24.45 5.07 33.52z" fill="#fd4755"/><path d="m152.39 47.29c-8.98-9.07-10.71-22.69-5.07-33.52-2.32 1.55-4.47 3.36-6.42 5.43-.03.04-.07.07-.1.11-.04.04-.09.09-.13.14l-21.777 23.518c1.013 1.522 2.166 2.977 3.498 4.322l194.469 196.503c58.009 58.616 59.367 152.583 3.077 212.851l15.434 15.595 115.35-123.5z" fill="#fb2b3a"/><path d="m297.066 433.536 38.304 38.704 115.35-123.5-38.302-38.702z" fill="#fed402"/><path d="m412.418 310.038-51.753 55.408c-2.919 32.974-16.462 65.218-40.729 91.198l15.434 15.595 115.35-123.5z" fill="#fac600"/><path d="m234.424 320.194c-13.446-8.491-21.473-22.723-21.473-38.071v-38.998c8.264-.479 16.363-2.096 24.142-4.825 6.671-2.34 12.993-5.463 18.858-9.309 5.966 3.997 12.429 7.213 19.277 9.587 7.676 2.661 15.67 4.209 23.821 4.617v38.927c0 15.348-8.027 29.58-21.473 38.071l-21.576 13.626z" fill="#fed402"/><path d="m294.928 112.647 119.406 119.406 41.503-41.935-119.407-119.407z" fill="#fed402"/><path d="m440.759 175.04-41.503 41.936 15.078 15.077 37.785-38.179 3.718-3.756z" fill="#fac600"/><path d="m63.127 197.154 41.502 41.936 119.406-119.406-41.502-41.936z" fill="#fed402"/><path d="m167.454 92.826 41.503 41.936 15.078-15.078-41.502-41.936z" fill="#fac600"/></g><path d="m487.975 375.724-31.924-32.258-70.712-71.452 94.441-95.427c13.529-13.668 13.852-36.222.742-50.251l-103.63-111.918c-.091-.102-.183-.2-.271-.291-7.171-7.41-16.556-13.358-32.642-14.127h-175.96c-12.228-.008-24.176 5.129-32.579 14.058-.039.042-.078.083-.116.125-.071.075-.145.155-.218.237l-103.607 111.89c-13.131 14.055-12.809 36.608.72 50.276 11.846 11.968 82.252 81.253 94.439 95.425l-70.708 71.454-31.924 32.258c-2.913 2.944-2.889 7.692.056 10.606 2.943 2.913 7.692 2.89 10.606-.056l26.437-26.713 18.591 19.904-26.852 27.133c-2.913 2.944-2.889 7.692.056 10.606 2.943 2.913 7.692 2.89 10.606-.056l26.437-26.713 18.592 19.905-26.852 27.133c-2.913 2.944-2.889 7.692.056 10.606 2.943 2.913 7.692 2.89 10.606-.056l26.436-26.714 18.592 19.905-26.853 27.137c-2.913 2.944-2.889 7.692.056 10.606 2.943 2.913 7.692 2.89 10.606-.056l26.436-26.713 18.591 19.905-26.852 27.133c-2.913 2.944-2.889 7.692.056 10.606 2.943 2.913 7.692 2.89 10.606-.056l31.924-32.258c.016-.016.029-.034.045-.051l58.217-58.826c2.913-2.944 2.889-7.692-.056-10.606-2.942-2.913-7.691-2.891-10.606.056l-14.475 14.626-105.105-112.53 27.226-27.513 192.781 194.794c.016.017.029.035.045.051l31.924 32.258c2.914 2.945 7.663 2.968 10.606.056 2.944-2.914 2.969-7.662.056-10.606l-26.851-27.132 18.591-19.905 26.436 26.712c2.914 2.945 7.663 2.968 10.606.056 2.944-2.914 2.969-7.662.056-10.606l-26.852-27.132 18.592-19.906 26.436 26.714c2.914 2.945 7.663 2.968 10.606.056 2.944-2.914 2.969-7.662.056-10.606l-26.852-27.133 18.591-19.905 26.436 26.713c2.914 2.945 7.663 2.968 10.606.056 2.944-2.914 2.969-7.662.056-10.606l-26.852-27.132 18.592-19.905 26.437 26.713c2.914 2.945 7.663 2.968 10.606.056 2.947-2.918 2.971-7.666.058-10.61zm-283.445 57.662-27.743 28.034-105.105-112.529 27.742-28.034zm209.776-211.967-108.8-108.799 30.951-31.274 108.8 108.8zm-39.554-187.234 94.788 102.366c7.701 8.242 7.513 21.468-.421 29.483l-13.31 13.449-108.8-108.8 17.929-18.116c5.139-5.19 8.453-11.602 9.814-18.382zm-221.583-15.213c4.521-2.6 9.613-3.972 14.85-3.972h175.96c5.24 0 10.336 1.374 14.85 3.971 3.245 7.858 1.526 16.907-4.551 23.043l-82.267 83.125c-2.913 2.944-2.889 7.693.056 10.606 2.942 2.913 7.691 2.891 10.606-.055l12.281-12.409 108.8 108.8-28.968 29.27-145.441-146.963c-.002-.002-.004-.005-.006-.007s-.004-.003-.006-.005l-41.49-41.924c-.002-.002-.004-.004-.006-.007-.002-.002-.004-.003-.005-.005l-30.112-30.427c-6.075-6.135-7.794-15.183-4.551-23.041zm-110.289 147.062c-7.933-8.014-8.121-21.241-.397-29.508l94.766-102.341c1.36 6.78 4.673 13.192 9.811 18.381l24.895 25.155-108.801 108.799zm30.826 31.148 108.799-108.799 30.95 31.274-108.799 108.798zm68.784 69.502c-.001-.002-.003-.004-.005-.006-.001-.001-.002-.002-.004-.003l-27.273-27.558 108.799-108.799 178.007 179.869-105.105 112.529zm234.657 149.84-41.934 44.895-27.744-28.033 105.104-112.528 27.743 28.033zm-77.723-180.819c-7.435-.372-14.749-1.79-21.739-4.213-6.225-2.158-12.132-5.095-17.559-8.731-2.505-1.677-5.769-1.693-8.287-.041-5.353 3.51-11.149 6.371-17.229 8.503-7.102 2.491-14.535 3.977-22.093 4.415-3.967.23-7.066 3.514-7.066 7.487v38.998c0 17.938 9.334 34.54 24.968 44.413l21.576 13.625c2.446 1.544 5.563 1.545 8.009 0l21.577-13.625c15.634-9.873 24.968-26.477 24.968-44.413v-38.927c0-3.997-3.134-7.291-7.125-7.491zm-7.875 46.417c0 12.76-6.721 24.622-17.977 31.73l-17.572 11.096-17.571-11.097c-11.257-7.107-17.978-18.97-17.978-31.729v-32.181c6.521-.862 12.928-2.39 19.124-4.564 5.683-1.993 11.158-4.523 16.336-7.543 5.321 3.164 10.973 5.79 16.86 7.831 6.087 2.11 12.377 3.58 18.777 4.392v32.065z"/></g></svg>