<svg height="480pt" viewBox="-88 0 480 480" width="480pt" xmlns="http://www.w3.org/2000/svg"><g fill="#ffcc5c"><path d="m255.449219 167.359375v191.480469c.167969 2.820312-1.222657 5.507812-3.621094 7l-21.335937 9.792968c-.542969.226563-1.121094.351563-1.707032.367188-1.183594-.003906-2.308594-.515625-3.09375-1.398438-1.507812-1.617187-2.316406-3.761718-2.242187-5.96875v-171.832031c-.019531-1.859375.519531-3.683593 1.546875-5.234375l21.335937-29.453125c1.199219-2.007812 3.777344-2.691406 5.8125-1.546875 2.21875 1.527344 3.472657 4.105469 3.304688 6.792969zm0 0"/><path d="m223.449219 207.023438v189.832031c.003906 2.984375-1.859375 5.652343-4.664063 6.679687l-82.285156 28.121094c-.710938.21875-1.449219.335938-2.195312.351562-1.445313.023438-2.855469-.449218-4-1.335937-1.820313-1.324219-2.894532-3.445313-2.878907-5.695313v-133.601562c.007813-1.855469.722657-3.640625 1.992188-4.992188l82.304687-84.351562c1.953125-1.984375 4.917969-2.570312 7.480469-1.480469 2.597656 1.097657 4.273437 3.652344 4.246094 6.472657zm0 0"/><path d="m223.449219 8 62.121093 67.769531c14.472657 15.785157 13.941407 40.167969-1.199218 55.308594l-150.242188 150.242187c-5.347656 5.347657-12.902344 7.863282-20.390625 6.78125-7.488281-1.078124-14.027343-5.621093-17.648437-12.261718l-21.441406-39.375c-6.648438-12.195313-4.671876-27.289063 4.898437-37.359375l125.777344-132.441407c6.59375-6.949218 10.957031-15.714843 12.527343-25.167968zm0 0"/><path d="m223.378906 15.28125-5.039062 26.007812c-1.558594 7.71875-5.308594 14.828126-10.800782 20.472657-1.46875 1.46875-3.46875 2.277343-5.542968 2.238281h-100.800782c-2.074218.023438-4.070312-.78125-5.546874-2.238281-5.703126-5.769531-9.597657-13.078125-11.199219-21.035157l-4.925781-25.527343c-.28125-1.847657.332031-3.71875 1.65625-5.039063 1.472656-1.40625 3.433593-2.179687 5.46875-2.160156h129.601562c2.039062-.015625 4.003906.765625 5.472656 2.175781 1.324219 1.34375 1.9375 3.238281 1.65625 5.105469zm0 0"/><path d="m149.507812 125.289062-59.203124 64.421876c-1.351563 1.46875-3.257813 2.300781-5.253907 2.289062-1.800781-.027344-3.53125-.707031-4.863281-1.921875l-58.847656-55.679687c-17.441406-16.839844-18.605469-44.402344-2.648438-62.65625l54.503906-61.34375c1.816407-2.054688 4.667969-2.859376 7.296876-2.0625 2.667968.855468 4.628906 3.136718 5.078124 5.902343l4.863282 30.257813c1.015625 6.566406 3.777344 12.734375 8 17.863281 1.074218 1.175781 37.121094 38.449219 50.929687 52.617187 2.707031 2.882813 2.769531 7.355469.144531 10.3125zm0 0"/></g><path d="m291.507812 70.351562-62.160156-67.757812c-.65625-.683594-1.429687-1.246094-2.28125-1.65625-.210937-.105469-.425781-.199219-.648437-.28125-.898438-.394531-1.859375-.6171875-2.839844-.65625h-144.230469c-.988281.03125-1.964844.246094-2.875.632812-.214844.085938-.421875.167969-.628906.269532-.859375.414062-1.632812.976562-2.289062 1.664062l-60.960938 66.480469c-17.890625 19.570313-16.5625 49.929687 2.96875 67.863281l59.886719 54.929688-1.671875 1.769531c-12.03125 12.554687-14.507813 31.472656-6.109375 46.703125l21.4375 39.359375c4.789062 8.863281 13.503906 14.921875 23.480469 16.328125 1.546874.222656 3.105468.335938 4.664062.335938.746094 0 1.464844-.167969 2.199219-.214844v175.878906c0 4.417969 3.582031 8 8 8s8-3.582031 8-8v-26.230469l16-5.335937v23.566406c0 4.417969 3.582031 8 8 8s8-3.582031 8-8v-28.894531l16-5.335938v26.230469c0 4.417969 3.582031 8 8 8s8-3.582031 8-8v-31.566406l16-5.328125v20.894531c0 4.417969 3.582031 8 8 8s8-3.582031 8-8v-55.59375l16-5.316406v20.910156c0 4.417969 3.582031 8 8 8s8-3.582031 8-8v-236.6875l26.535156-26.511719c18.242187-18.160156 18.914063-47.472656 1.523437-66.449219zm-104.195312 3.585938-34.398438 36.199219-38.070312-38.136719h74.308594zm26.691406-57.9375-4.050781 24.222656c-.957031 5.667969-3.152344 11.054688-6.421875 15.777344h-103.890625c-3.496094-4.914062-5.839844-10.558594-6.855469-16.503906l-3.894531-23.496094zm-189.601562 63.886719 49.863281-54.398438 2.753906 16.601563c1.660157 9.96875 5.972657 19.308594 12.488281 27.039062l.085938.0625.128906.183594c.960938 1.050781 1.917969 2.097656 2.96875 3.136719l49.160156 49.242187-55.464843 58.46875-60-55.078125c-13.03125-11.953125-13.925781-32.199219-2-45.257812zm111.046875 211.425781 4.378906-4.375 75.621094-75.625v190.917969l-80 26.671875zm112 70.917969-16 5.320312v-172.238281l16-16zm31.199219-236.796875-60.878907 60.878906-89.277343 89.28125c-3.558594 3.574219-8.59375 5.265625-13.589844 4.558594-4.996094-.707032-9.363282-3.730469-11.789063-8.152344l-21.453125-39.375c-5.03125-9.132812-3.542968-20.476562 3.671875-28l125.757813-132.480469c.039062-.046875.625-.679687.671875-.71875.710937-.746093 1.386719-1.523437 2.015625-2.335937l.097656-.136719.144531-.167969.070313-.128906c6.058594-7.449219 10.074218-16.351562 11.648437-25.824219l2.902344-17.351562 51.066406 55.664062c11.59375 12.664063 11.128907 32.222657-1.058593 44.320313zm0 0"/></svg>